<?xml version="1.0" encoding="UTF-8" standalone="no"?>
<!DOCTYPE svg PUBLIC "-//W3C//DTD SVG 1.1//EN"
 "http://www.w3.org/Graphics/SVG/1.1/DTD/svg11.dtd">
<!-- Generated by graphviz version 12.1.1 (20240910.0053)
 -->
<!-- Title: INFRA Pages: 1 -->
<svg width="280pt" height="188pt"
 viewBox="0.00 0.00 279.85 188.00" xmlns="http://www.w3.org/2000/svg" xmlns:xlink="http://www.w3.org/1999/xlink">
<g id="graph0" class="graph" transform="scale(1 1) rotate(0) translate(4 184)">
<title>INFRA</title>
<polygon fill="white" stroke="none" points="-4,4 -4,-184 275.85,-184 275.85,4 -4,4"/>
<!-- bolt_postgres -->
<g id="node1" class="node">
<title>bolt_postgres</title>
<path fill="#ffcfb3" stroke="black" stroke-width="2" d="M203.53,-173.45C203.53,-177.07 172.57,-180 134.46,-180 96.34,-180 65.38,-177.07 65.38,-173.45 65.38,-173.45 65.38,-114.55 65.38,-114.55 65.38,-110.93 96.34,-108 134.46,-108 172.57,-108 203.53,-110.93 203.53,-114.55 203.53,-114.55 203.53,-173.45 203.53,-173.45"/>
<path fill="none" stroke="black" stroke-width="2" d="M203.53,-173.45C203.53,-169.84 172.57,-166.91 134.46,-166.91 96.34,-166.91 65.38,-169.84 65.38,-173.45"/>
<text text-anchor="middle" x="134.46" y="-148.2" font-family="Arial" font-size="14.00">bolt_postgres</text>
<text text-anchor="middle" x="134.46" y="-131.4" font-family="Arial" font-size="14.00">(Docker::Container)</text>
</g>
<!-- postgres_data -->
<g id="node2" class="node">
<title>postgres_data</title>
<path fill="#fff5cd" stroke="black" stroke-width="2" d="M124.92,-65.45C124.92,-69.07 96.92,-72 62.46,-72 27.99,-72 0,-69.07 0,-65.45 0,-65.45 0,-6.55 0,-6.55 0,-2.93 27.99,0 62.46,0 96.92,0 124.92,-2.93 124.92,-6.55 124.92,-6.55 124.92,-65.45 124.92,-65.45"/>
<path fill="none" stroke="black" stroke-width="2" d="M124.92,-65.45C124.92,-61.84 96.92,-58.91 62.46,-58.91 27.99,-58.91 0,-61.84 0,-65.45"/>
<text text-anchor="middle" x="62.46" y="-40.2" font-family="Arial" font-size="14.00">postgres_data</text>
<text text-anchor="middle" x="62.46" y="-23.4" font-family="Arial" font-size="14.00">(Docker::Volume)</text>
</g>
<!-- bolt_postgres&#45;&gt;postgres_data -->
<g id="edge1" class="edge">
<title>bolt_postgres&#45;&gt;postgres_data</title>
<path fill="none" stroke="black" d="M110.48,-107.7C104.78,-99.3 98.61,-90.23 92.67,-81.47"/>
<polygon fill="black" stroke="black" points="95.69,-79.7 87.18,-73.39 89.9,-83.63 95.69,-79.7"/>
</g>
<!-- bolt_network -->
<g id="node3" class="node">
<title>bolt_network</title>
<path fill="#e6e6e6" stroke="black" stroke-width="2" d="M259.85,-72C259.85,-72 155.06,-72 155.06,-72 149.06,-72 143.06,-66 143.06,-60 143.06,-60 143.06,-12 143.06,-12 143.06,-6 149.06,0 155.06,0 155.06,0 259.85,0 259.85,0 265.85,0 271.85,-6 271.85,-12 271.85,-12 271.85,-60 271.85,-60 271.85,-66 265.85,-72 259.85,-72"/>
<text text-anchor="middle" x="207.46" y="-40.2" font-family="Arial" font-size="14.00">bolt_network</text>
<text text-anchor="middle" x="207.46" y="-23.4" font-family="Arial" font-size="14.00">(Docker::Network)</text>
</g>
<!-- bolt_postgres&#45;&gt;bolt_network -->
<g id="edge2" class="edge">
<title>bolt_postgres&#45;&gt;bolt_network</title>
<path fill="none" stroke="black" d="M158.77,-107.7C164.55,-99.3 170.8,-90.23 176.83,-81.47"/>
<polygon fill="black" stroke="black" points="179.61,-83.61 182.4,-73.39 173.84,-79.64 179.61,-83.61"/>
</g>
</g>
</svg>
